<?xml version="1.0" encoding="utf-8"?>
<!-- Generator: Adobe Illustrator 15.0.0, SVG Export Plug-In . SVG Version: 6.00 Build 0)  -->
<!DOCTYPE svg PUBLIC "-//W3C//DTD SVG 1.1//EN" "http://www.w3.org/Graphics/SVG/1.1/DTD/svg11.dtd">
<svg version="1.1"
	 id="svg1" sodipodi:docbase="/home/vector" inkscape:version="0.40" sodipodi:docname="chess_set_symbols.svg" sodipodi:version="0.32" xmlns:sodipodi="http://sodipodi.sourceforge.net/DTD/sodipodi-0.dtd" xmlns:rdf="http://www.w3.org/1999/02/22-rdf-syntax-ns#" xmlns:inkscape="http://www.inkscape.org/namespaces/inkscape" xmlns:dc="http://purl.org/dc/elements/1.1/" xmlns:cc="http://web.resource.org/cc/"
	 xmlns="http://www.w3.org/2000/svg" xmlns:xlink="http://www.w3.org/1999/xlink" x="0px" y="0px" width="78.363px"
	 height="84.689px" viewBox="63.069 30.512 78.363 84.689" enable-background="new 63.069 30.512 78.363 84.689"
	 xml:space="preserve">
<sodipodi:namedview  id="base" inkscape:pageopacity="0.0" inkscape:cx="420.94487" inkscape:window-width="1270" inkscape:zoom="1.3674339" borderopacity="1.0" pagecolor="#ffffff" inkscape:window-y="5" inkscape:window-x="0" inkscape:pageshadow="2" bordercolor="#666666" inkscape:current-layer="layer1" inkscape:cy="151.37844" inkscape:window-height="994">
	</sodipodi:namedview>
<path id="text1061" fill="#6F4192" d="M105.543,82.927c0,1.549-1.076,2.324-3.228,2.324c-2.41,0-3.615-0.775-3.615-2.324
	c0-7.144-2.366-12.953-7.101-17.429c-4.217-3.787-8.305-5.681-12.265-5.681c-5.852,0-9.51,2.324-10.973,6.972l-0.517,3.486v0.258
	c0,3.443,2.539,8.22,7.617,14.33c1.377,1.549,2.538,2.754,3.485,3.615c1.377,1.119,3.658,1.679,6.842,1.679
	c3.357,0,8.779-0.646,16.267-1.937c7.574,1.291,13.039,1.937,16.396,1.937c3.271,0,5.551-0.56,6.842-1.679
	c3.615-3.184,6.627-7.057,9.037-11.619c1.377-2.582,2.065-4.691,2.065-6.326c0-5.422-2.453-8.822-7.358-10.199
	c-1.291-0.344-2.668-0.517-4.132-0.517c-3.959,0-8.004,1.937-12.135,5.81C107.952,69.931,105.543,75.697,105.543,82.927
	 M133.557,70.533c0,3.443-2.367,7.488-7.101,12.136l-3.356,2.84l-1.291,0.775c-1.636,0.258-3.356,0.387-5.164,0.387
	c-5.336,0-8.004-1.076-8.004-3.228c0.172-6.627,2.151-11.791,5.938-15.492c3.271-3.271,6.627-4.906,10.069-4.906
	c4.39,0,7.187,1.592,8.392,4.777L133.557,70.533 M121.293,103.325c0-2.238-6.326-3.356-18.978-3.356
	c-3.442,0-6.498,0.129-9.166,0.387l-3.099,0.258c-4.647,0.603-6.972,1.463-6.972,2.582c0,1.291,1.162,1.937,3.486,1.937
	l15.621-1.291l15.491,1.291C120.088,105.132,121.293,104.53,121.293,103.325 M128.522,106.423
	c-0.172,5.853-8.951,8.778-26.336,8.778c-17.214,0-25.949-2.926-26.208-8.778c-0.086-5.508-0.903-10.414-2.452-14.718
	c-0.947-2.324-2.755-5.293-5.423-8.908c-3.356-4.562-5.034-8.606-5.034-12.135c0-5.508,2.366-9.769,7.1-12.781
	c2.669-1.721,5.638-2.582,8.908-2.582c4.476,0,8.736,1.635,12.781,4.906c0-3.959,0.387-6.67,1.162-8.133
	c0.602-1.635,2.581-3.615,5.938-5.939v-2.969l-5.293-3.228v-4.647h4.776l1.549-4.777h4.39l1.679,4.777h4.647v4.647l-5.164,3.228
	v2.969c3.271,2.41,5.293,4.476,6.067,6.197l0.903,3.744c0.087,1.033,0.173,2.41,0.259,4.131c4.045-3.271,8.219-4.906,12.522-4.906
	c5.767,0,10.242,2.194,13.427,6.584c1.808,2.582,2.711,5.508,2.711,8.779c0,3.529-1.679,7.617-5.035,12.265l-2.969,4.131
	C130.244,91.878,128.608,98.333,128.522,106.423 M70.814,70.533c0-3.615,1.808-5.938,5.423-6.971
	c1.032-0.344,2.108-0.517,3.228-0.517c3.614,0,7.058,1.635,10.328,4.906c3.7,3.787,5.637,8.951,5.809,15.492
	c0.087,1.894-1.893,2.969-5.938,3.228c-0.603,0-1.248,0-1.937,0c-1.721,0-3.485-0.129-5.293-0.387
	c-2.84-1.377-5.68-4.088-8.521-8.133C71.847,75.138,70.814,72.599,70.814,70.533"/>
<path id="path1742" fill="#6F4192" d="M248.427,101.775c0,1.377,0.99,2.066,2.97,2.066l8.908-0.646c0,0,2.582-0.129,7.746-0.388
	h1.937l15.104,0.775l3.098,0.258c1.979,0,2.97-0.688,2.97-2.066c0-2.496-5.767-3.873-17.3-4.131h-4.002
	c-9.726,0-16.224,0.731-19.494,2.194C249.073,100.355,248.427,101.001,248.427,101.775 M232.291,47.812
	c-1.636,0-2.668,0.817-3.099,2.453c-0.086,0.258-0.129,0.517-0.129,0.775c0,1.635,0.817,2.668,2.452,3.098
	c0.259,0.086,0.517,0.129,0.775,0.129c2.065,0,3.098-1.076,3.098-3.227C235.388,48.888,234.356,47.812,232.291,47.812
	 M249.203,39.679c-2.238,0-3.357,1.076-3.357,3.227c0,2.152,1.119,3.228,3.357,3.228c2.065,0,3.098-1.076,3.098-3.228
	C252.301,40.754,251.268,39.679,249.203,39.679 M290.385,39.679c-1.464,0-2.453,0.731-2.97,2.194l-0.129,1.033
	c0,2.152,1.033,3.228,3.099,3.228c2.151,0,3.228-1.076,3.228-3.228C293.613,40.754,292.537,39.679,290.385,39.679 M307.169,47.812
	c-2.065,0-3.099,1.076-3.099,3.228c0,2.151,1.033,3.227,3.099,3.227c2.151,0,3.228-1.076,3.228-3.227
	c0-1.636-0.818-2.668-2.453-3.099C307.685,47.855,307.427,47.812,307.169,47.812 M297.874,109.522
	c-0.001,2.409-4.433,4.088-13.298,5.035l-12.522,0.773h-2.324c-10.5,0-18.504-0.903-24.013-2.711
	c-2.668-0.774-4.002-1.807-4.002-3.098c0-2.496,0.688-5.336,2.065-8.521c0.947-1.894,1.42-3.228,1.42-4.002
	c0-1.635-1.979-4.82-5.938-9.554c-2.151-2.496-3.399-4.217-3.743-5.164c0-0.517-0.259-1.679-0.775-3.486l-1.678-6.455
	c-1.119-4.217-1.851-8.693-2.195-13.426c-3.959-1.635-5.938-4.26-5.938-7.875c0-3.099,1.42-5.293,4.261-6.584
	c0.946-0.43,1.979-0.646,3.099-0.646c2.84,0,4.948,1.291,6.325,3.873c0.603,1.119,0.904,2.238,0.904,3.357l-0.646,4.906
	c0,3.873,2.754,8.606,8.262,14.201c0.431-3.529,0.646-7.229,0.646-11.103c0-5.767-1.032-9.424-3.098-10.974
	c-0.173-0.172-0.345-0.301-0.517-0.387c-1.55-0.947-2.324-2.625-2.324-5.035c0-3.185,1.464-5.379,4.39-6.584
	c0.946-0.431,1.937-0.646,2.97-0.646c3.012,0,5.164,1.377,6.455,4.131c0.516,0.947,0.774,1.979,0.774,3.099l-0.904,5.551
	c0,4.82,2.367,12.178,7.101,22.076c1.808-8.09,2.711-14.287,2.711-18.59c0-3.615-0.646-6.929-1.937-9.941
	c-0.516-1.119-0.774-1.979-0.774-2.582c0-3.185,1.42-5.379,4.261-6.584c0.946-0.43,1.937-0.646,2.969-0.646
	c3.013,0,5.121,1.42,6.326,4.26c0.431,0.947,0.646,1.937,0.646,2.969c0,0.172-0.731,2.453-2.194,6.842
	c-0.345,1.119-0.517,3.012-0.517,5.681c0,4.303,0.903,10.5,2.711,18.59c4.647-9.812,6.972-17.17,6.972-22.076l-0.774-5.422v-0.129
	c-0.001-3.185,1.463-5.379,4.389-6.584c0.947-0.431,1.937-0.646,2.97-0.646c3.013,0,5.164,1.377,6.455,4.131
	c0.517,0.947,0.774,1.979,0.774,3.099c0,2.41-0.774,4.131-2.323,5.164c-2.41,1.549-3.615,5.336-3.615,11.36
	c0,3.787,0.215,7.445,0.646,10.974c5.508-5.594,8.263-10.328,8.263-14.201l-0.646-4.906c0-3.013,1.377-5.164,4.131-6.455
	c0.946-0.517,1.979-0.775,3.099-0.775c3.099,0,5.293,1.377,6.584,4.131l0.774,2.453v0.646c0,3.442-1.979,6.067-5.938,7.875
	c-0.517,5.938-1.979,13.211-4.39,21.818c-0.172,0.688-0.258,1.205-0.258,1.549c0,0.602-0.646,1.592-1.937,2.969l-1.549,1.936
	c-4.132,4.734-6.197,8.004-6.197,9.812c0,0.516,1.033,3.184,3.099,8.004C297.701,106.724,297.873,108.23,297.874,109.522
	 M269.858,35.676c-1.635,0-2.668,0.818-3.098,2.453c-0.087,0.258-0.13,0.516-0.13,0.774c0,1.635,0.818,2.668,2.453,3.099
	c0.258,0.086,0.517,0.129,0.774,0.129c2.065,0,3.099-1.076,3.099-3.228c0-1.549-0.731-2.582-2.194-3.098
	C270.504,35.719,270.203,35.676,269.858,35.676 M293.096,86.025c0-2.754-7.746-4.131-23.238-4.131
	c-15.578,0-23.367,1.42-23.367,4.26c0,1.205,1.119,1.808,3.357,1.808c2.582,0,5.81-0.215,9.682-0.646l8.392-0.258h2.066
	c2.409,0,6.971,0.215,13.685,0.646l6.325,0.258C292.064,87.962,293.096,87.316,293.096,86.025"/>
<path id="path1734" fill="#6F4192" d="M408.871,115.202l-2.453-2.453v-9.166l13.039-12.91V64.982l-10.069-9.94v-11.49l3.615-3.615
	h9.166l2.323,2.195v3.228h4.906v-3.228l2.194-2.195h14.33l2.194,2.195v3.228h4.906v-3.228l2.194-2.195h9.296l3.614,3.615v11.49
	l-10.069,9.94v25.691l13.039,12.91v9.166l-2.582,2.453H408.871 M424.105,87.704v4.39h29.306v-4.39H424.105 M424.105,64.466v4.389
	h29.306v-4.389H424.105"/>
<path id="path1731" fill="#6F4192" d="M599.394,85.38c-4.39,0-6.584,0.688-6.584,2.065c0,1.205,1.937,1.937,5.81,2.195h7.101
	c8.606,0,12.909-0.731,12.909-2.195c0-1.377-2.194-2.065-6.584-2.065H599.394 M599.394,77.375c-3.787,0-5.896,0.431-6.326,1.291
	c-0.172,0.172-0.258,0.431-0.258,0.775c0,0.947,0.903,1.506,2.711,1.678c2.237,0.258,5.638,0.387,10.199,0.387
	s8.004-0.129,10.328-0.387c1.721-0.172,2.581-0.731,2.581-1.678c0-1.377-2.194-2.066-6.584-2.066H599.394 M623.407,82.927
	l2.582,9.94c0,3.012-3.056,4.777-9.166,5.293c4.475,1.722,8.649,2.582,12.522,2.582c0.517,0,3.056-0.129,7.617-0.387
	c3.786,0,6.885,1.979,9.295,5.938c0.344,0.688,0.774,1.463,1.291,2.324l-4.647,7.101c-1.377,1.722-2.841,2.841-4.39,3.356
	c-0.345-1.807-3.099-2.926-8.263-3.356l-3.098-0.259c-10.587-0.859-17.73-3.141-21.431-6.842c-3.357,3.529-8.478,5.552-15.363,6.068
	c-1.549,0.172-3.571,0.43-6.067,0.773c-6.283,0.518-9.941,1.421-10.974,2.712c-0.172,0.258-0.302,0.56-0.388,0.903
	c-2.237-0.946-4.346-3.098-6.325-6.455c-0.775-1.377-1.679-2.711-2.712-4.002c2.324-4.303,4.82-6.885,7.488-7.746
	c0.946-0.344,1.979-0.517,3.099-0.517c0,0,2.539,0.129,7.616,0.387c3.959,0,8.134-0.86,12.523-2.582
	c-6.111-0.516-9.166-2.281-9.166-5.293c0-0.258,0.688-2.453,2.065-6.584c0.43-1.377,0.646-2.324,0.646-2.84
	c-5.25-6.369-7.875-12.006-7.875-16.912c0-5.68,2.797-10.844,8.391-15.492c4.992-4.218,8.607-6.455,10.845-6.713
	c-1.894-2.324-2.84-4.734-2.84-7.229c0-4.045,2.022-6.541,6.067-7.488c0.947-0.258,1.937-0.387,2.97-0.388
	c4.303,0,7.101,1.592,8.392,4.777l0.646,2.711v0.387c-0.001,2.41-0.947,4.82-2.841,7.229c1.636,0.43,4.088,1.764,7.359,4.002
	c7.918,5.508,11.877,11.576,11.877,18.203C631.153,71.523,628.571,76.988,623.407,82.927 M608.044,70.921v-5.939h4.519v-4.906
	h-4.519v-5.551h-4.647v5.551h-4.519v4.906h4.519v5.939H608.044 M605.72,34.515c-1.722,0-2.798,0.774-3.228,2.324l-0.129,0.774
	c-0.001,1.635,0.86,2.668,2.582,3.099c0.258,0.086,0.516,0.129,0.774,0.129c2.151,0,3.228-1.076,3.228-3.228
	C608.948,35.547,607.872,34.515,605.72,34.515"/>
<path id="path1726" fill="#6F4192" d="M752.737,69.243c2.151,0,4.432-1.248,6.842-3.744c1.291-1.291,1.937-2.41,1.937-3.356
	c0-1.119-1.032-1.679-3.099-1.679c-2.409,0-4.432,1.076-6.067,3.228c-0.86,1.033-1.291,2.109-1.291,3.228
	C751.058,68.468,751.618,69.243,752.737,69.243 M750.542,40.97c0.172,0,0.603-0.043,1.291-0.129c3.873,0,8.004,1.291,12.394,3.873
	c0.517,0.344,0.774,0.517,0.774,0.517c2.496-4.045,4.39-6.068,5.681-6.068c2.754,1.549,4.562,3.228,5.423,5.035
	c0.43,0.861,1.075,2.668,1.936,5.422c0.689-0.172,1.378-0.258,2.066-0.258c7.229,0,14.114,4.433,20.655,13.297
	c7.832,10.242,11.748,24.185,11.748,41.829c0,3.959-0.172,7.531-0.516,10.715h-54.48c0.172-5.766,2.28-11.231,6.326-16.396
	c0.43-0.688,1.032-1.463,1.807-2.324c3.185-4.045,5.121-7.144,5.81-9.295c0.345-1.119,0.603-2.28,0.775-3.485
	c-5.681,2.238-9.941,5.551-12.781,9.94c-1.291,2.152-2.711,4.39-4.261,6.713c-0.43,0.688-1.075,1.033-1.937,1.033
	c-2.151,0-3.228-1.334-3.228-4.002c-0.86,1.119-1.85,1.678-2.969,1.678c0,0-0.86-0.215-2.582-0.646
	c-3.701-0.947-6.326-2.582-7.875-4.906c-0.517-0.774-1.076-1.808-1.679-3.099c0.603-3.701,3.572-11.06,8.908-22.076
	c3.873-7.918,6.283-13.599,7.229-17.042c0.086-0.774,0.129-1.894,0.129-3.356C751.187,46.736,750.972,44.412,750.542,40.97
	 M742.796,86.284c-2.065,0-3.442,0.903-4.131,2.711c-0.172,0.43-0.258,0.861-0.258,1.291c0,0.344,0.129,0.774,0.387,1.291
	c2.238,0,3.615-0.947,4.131-2.84c0.087-0.258,0.13-0.559,0.13-0.904C743.054,87.661,742.969,87.144,742.796,86.284 M806.184,106.165
	v-4.777c0-14.029-3.572-25.519-10.716-34.47c-6.196-7.746-11.834-11.619-16.912-11.619c0,0-0.517-0.086-1.549-0.258
	c-0.172,0.086-0.302,0.172-0.388,0.258c-1.118,0-1.678,0.473-1.678,1.42c0,0.344,0.258,0.774,0.774,1.291
	c4.647,0.43,9.726,3.744,15.233,9.941c6.972,8.09,10.457,19.795,10.457,35.115c0,0,0,0.258,0,0.775c0,3.787,0.818,5.681,2.453,5.681
	C805.237,109.522,806.011,108.403,806.184,106.165"/>
<path id="path1722" fill="#6F4192" d="M914.084,115.202c-0.087-1.032-0.13-3.055-0.13-6.067c0-10.844,3.357-18.892,10.07-24.142
	c1.979-1.635,4.389-3.142,7.229-4.519c-3.356-1.033-5.638-3.572-6.843-7.617c-0.344-1.291-0.516-2.625-0.516-4.002
	c0-5.767,2.969-9.854,8.907-12.265c-1.549-2.582-2.323-5.035-2.323-7.358c0-3.873,1.894-6.756,5.68-8.65
	c1.722-0.86,3.572-1.291,5.552-1.291c4.304,0,7.487,1.679,9.554,5.035c0.946,1.463,1.42,3.098,1.42,4.906
	c0,2.496-0.731,4.949-2.195,7.358c3.185,1.291,5.466,3.013,6.843,5.164c1.377,2.324,2.065,4.691,2.065,7.101
	c0,4.476-1.549,7.875-4.647,10.199c-0.774,0.688-1.636,1.162-2.582,1.42c7.918,4.045,13.039,9.338,15.363,15.879
	c1.204,3.615,1.807,7.875,1.807,12.781c0,3.013-0.043,5.035-0.129,6.067H914.084"/>
<path id="path1721" fill="#6F4192" d="M103.657,258.031c-17.128,0-25.82-2.883-26.078-8.65c-0.431-7.918-1.765-13.9-4.002-17.945
	c-0.947-1.635-2.281-3.613-4.003-5.938c-2.926-3.873-4.562-7.145-4.905-9.812c-0.086-0.688-0.129-1.42-0.129-2.193
	c0-5.424,2.28-9.684,6.842-12.781c1.119-0.689,2.281-1.248,3.486-1.68c4.562-1.635,9.079-1.377,13.555,0.775
	c1.636,0.775,3.271,1.807,4.906,3.098l0.129,0.131c0-1.809,0.086-3.744,0.259-5.811c0-0.602,0.301-1.42,0.903-2.453
	c1.377-2.238,3.013-4.002,4.905-5.293c0.345-0.172,0.688-0.387,1.033-0.645v-3.1l-5.293-3.098v-4.648h4.776l1.679-4.904h3.873
	l1.678,4.904h4.777v4.648l-5.293,3.098v3.1c4.475,2.84,6.756,5.68,6.842,8.52c0.172,1.721,0.258,3.615,0.258,5.682l0.13-0.131
	c5.422-4.561,11.103-6.023,17.041-4.389c1.549,0.43,3.012,1.076,4.39,1.938c4.819,2.926,7.272,7.271,7.358,13.039
	c0,3.441-1.722,7.529-5.164,12.264c-2.84,3.959-4.604,6.842-5.293,8.65c-1.463,3.873-2.324,8.863-2.582,14.975
	C129.563,255.148,120.87,258.031,103.657,258.031 M103.657,214.523l3.744-5.938c0.602-1.291,1.075-2.496,1.42-3.615
	c0.172-0.602,0.258-1.85,0.258-3.744c0-5.078-1.765-7.617-5.293-7.617c-3.701,0-5.552,2.539-5.552,7.617
	c0,1.895,0.087,3.143,0.259,3.744c0.688,2.324,2.151,5.078,4.39,8.262C103.398,213.836,103.657,214.266,103.657,214.523
	 M138.127,214.266c0-3.873-1.291-6.842-3.873-8.908c-2.152-1.807-4.69-2.711-7.617-2.711c-3.701,0-7.703,1.895-12.006,5.682
	c-5.078,4.389-7.962,10.328-8.65,17.814c0,0.604,1.593,1.291,4.777,2.066c3.7,0.688,9.983,1.033,18.849,1.033l5.81-7.746
	C137.222,218.742,138.127,216.332,138.127,214.266 M103.657,231.695c-2.152,0.945-8.693,1.764-19.623,2.451
	c-1.636,0.086-2.97,0.174-4.003,0.26c0.861,3.27,1.421,6.885,1.679,10.844c5.938-1.895,13.254-2.84,21.947-2.84
	c8.864,0,16.181,0.945,21.946,2.84c0.259-4.303,0.818-7.918,1.679-10.844l-19.106-1.551
	C106.54,232.598,105.034,232.211,103.657,231.695 M69.187,214.266c0,2.668,2.108,6.713,6.326,12.135
	c1.032,1.291,1.764,2.238,2.194,2.842h2.323c8.865,0,15.32-0.604,19.365-1.809c1.291-0.344,1.937-0.773,1.937-1.291
	c-0.688-7.486-3.571-13.426-8.649-17.814c-4.218-3.787-8.22-5.682-12.007-5.682c-1.204,0-2.495,0.258-3.872,0.775
	c-3.443,0.859-5.767,3.141-6.972,6.842l-0.646,3.486V214.266 M103.657,253.383c8.09,0,13.685-0.516,16.783-1.549
	c0.774-0.258,1.161-0.559,1.161-0.904c0-2.236-5.938-3.355-17.815-3.355c-4.562,0-8.994,0.301-13.297,0.902
	c-3.185,0.518-4.777,1.334-4.777,2.453c0,1.291,5.078,2.109,15.234,2.453C101.978,253.383,102.883,253.383,103.657,253.383"/>
<path id="path1715" fill="#6F4192" d="M268.618,228.982h5.681c1.291,0,2.84,0.043,4.647,0.131l12.781,0.773h0.129
	c1.55,0,2.324-0.215,2.324-0.645v-0.518c0-2.582-5.724-4.26-17.171-5.035c-2.065-0.172-3.873-0.258-5.422-0.258
	c-8.435,0-14.933,0.861-19.494,2.582c-2.065,0.775-3.099,1.678-3.099,2.711v0.518c0,0.43,0.774,0.645,2.324,0.645L268.618,228.982
	 M292.502,234.793c-6.8-0.861-13.771-1.291-20.914-1.291c-7.488,0-14.459,0.43-20.914,1.291c1.032,0.861,1.549,2.539,1.549,5.035
	c0,1.635-0.258,2.625-0.774,2.969c5.164-0.947,11.877-1.42,20.14-1.42c8.262,0,14.976,0.473,20.14,1.42
	c-0.517-0.344-0.774-1.334-0.774-2.969C290.953,237.332,291.469,235.654,292.502,234.793 M271.588,245.895
	c-4.39,0-9.295,0.217-14.718,0.646c-4.217,0.344-6.325,1.334-6.325,2.969c0,2.152,7.014,3.229,21.043,3.229
	c14.028,0,21.043-1.076,21.043-3.229c0-0.688-0.56-1.334-1.678-1.936C287.682,246.455,281.227,245.895,271.588,245.895
	 M271.588,178.377c-2.152,0-3.228,1.031-3.228,3.098c0,2.238,1.075,3.357,3.228,3.357c2.065,0,3.099-1.119,3.099-3.357
	C274.686,179.408,273.653,178.377,271.588,178.377 M271.588,174.633c3.099,0,5.25,1.42,6.455,4.26l0.646,2.582v0.387
	c0,0.518-0.345,1.592-1.033,3.229c-1.205,3.527-1.808,6.584-1.808,9.166c0,4.217,0.947,10.457,2.841,18.719
	c4.647-9.811,6.971-17.213,6.972-22.205l-0.775-5.551c0-3.012,1.334-5.164,4.002-6.455c0.947-0.518,1.979-0.775,3.099-0.775
	c3.099,0,5.293,1.377,6.585,4.131c0.516,1.033,0.774,2.066,0.774,3.1c0,2.238-0.775,4.002-2.324,5.293
	c-2.323,2.324-3.528,6.111-3.614,11.361c0,2.236,0.215,5.852,0.646,10.844c5.594-5.766,8.391-10.457,8.392-14.072l-0.646-5.035
	c-0.001-2.84,1.29-4.949,3.873-6.326c1.032-0.602,2.108-0.902,3.227-0.902c2.927,0,5.121,1.334,6.585,4.002l0.774,2.453v0.773
	c0,3.529-1.979,6.197-5.938,8.004c-0.173,3.701-1.593,10.975-4.261,21.818c-0.172,0.518-0.301,0.99-0.387,1.42
	c-0.001,1.205-1.378,3.271-4.132,6.197c-3.701,3.701-5.551,6.584-5.551,8.65c0,0.945,1.032,3.484,3.098,7.617
	c0.345,0.773,0.517,1.936,0.517,3.484v0.904c-0.086,0.258-0.129,0.559-0.129,0.904v0.129l0.129,0.129
	c0,3.098-8.306,4.818-24.916,5.164c-1.119,0-2.195,0-3.228,0l-5.423-0.129h-0.129c-8.09-0.26-14.244-0.947-18.461-2.066
	c-2.668-0.775-4.002-1.764-4.002-2.969c0.086-0.086,0.086-0.604,0-1.549c-0.086-0.174-0.086-0.346,0-0.518
	c0-1.979,0.646-4.26,1.937-6.842c1.032-2.066,1.549-3.486,1.549-4.26c0-1.377-0.731-3.014-2.194-4.906l-6.326-7.23
	c-0.688-0.945-1.033-1.85-1.033-2.711c-2.668-10.93-4.174-18.031-4.519-21.301c-0.086-0.689-0.129-1.334-0.129-1.938
	c-3.959-1.807-5.938-4.475-5.938-8.004c0-2.84,1.291-4.949,3.873-6.326c1.119-0.602,2.237-0.902,3.356-0.902
	c3.013,0,5.164,1.377,6.455,4.131c0.517,0.947,0.774,1.979,0.774,3.098l-0.646,5.035c0,3.787,2.755,8.479,8.263,14.072
	c0.431-3.787,0.646-7.402,0.646-10.844c0-4.734-0.56-7.875-1.679-9.426c-0.43-0.602-1.075-1.291-1.937-2.064
	c-1.549-1.033-2.323-2.754-2.323-5.164c0-3.012,1.42-5.207,4.26-6.584c0.947-0.432,1.979-0.646,3.099-0.646
	c3.013,0,5.164,1.377,6.455,4.131c0.517,0.947,0.774,1.98,0.774,3.1l-0.774,5.422v0.129c0,4.906,2.324,12.309,6.972,22.205
	c1.807-7.832,2.711-14.072,2.711-18.719c0-3.443-0.646-6.713-1.937-9.812c-0.517-1.205-0.774-2.064-0.774-2.582
	c0-3.012,1.377-5.164,4.131-6.455C269.435,174.891,270.469,174.633,271.588,174.633 M308.897,190.512
	c-1.377,0-2.366,0.688-2.969,2.064c-0.086,0.346-0.129,0.689-0.129,1.033c0,1.723,0.774,2.797,2.323,3.229
	c0.259,0.086,0.517,0.129,0.774,0.129c2.152,0,3.228-1.119,3.228-3.357C312.125,191.545,311.05,190.512,308.897,190.512
	 M291.985,182.25c-1.463,0-2.453,0.73-2.969,2.193l-0.13,1.033c0,1.549,0.731,2.582,2.195,3.098c0.258,0.086,0.56,0.131,0.903,0.131
	c2.238,0,3.357-1.076,3.357-3.229S294.223,182.25,291.985,182.25 M250.931,182.25c-2.151,0-3.228,1.074-3.228,3.227
	s1.076,3.229,3.228,3.229c2.065,0,3.099-1.076,3.099-3.229S252.997,182.25,250.931,182.25 M234.019,190.512
	c-2.151,0-3.228,1.033-3.228,3.098c0,2.238,1.076,3.357,3.228,3.357c2.065,0,3.099-1.119,3.099-3.357
	c0-1.463-0.731-2.453-2.194-2.969C234.665,190.555,234.364,190.512,234.019,190.512 M271.588,198.773
	c-1.205,7.574-2.754,13.039-4.647,16.396l-1.937,3.098v0.129c-0.259-0.258-1.377-1.549-3.356-3.873
	c-2.496-2.926-5.121-8.477-7.875-16.652c0.172,1.203,0.258,2.451,0.258,3.742c0,4.047-0.731,10.285-2.194,18.721
	c-4.648-2.754-9.167-7.145-13.556-13.168c1.463,7.4,2.582,12.264,3.356,14.588c0.517,1.721,1.162,2.711,1.937,2.969
	c7.058-4.045,16.396-6.066,28.015-6.066c11.705,0,21.043,2.021,28.015,6.066c1.549-0.516,3.271-6.369,5.164-17.557
	c-4.476,6.195-8.951,10.586-13.427,13.168c-1.463-7.488-2.194-13.383-2.194-17.688c0-1.119,0.086-2.711,0.258-4.775
	c-1.721,5.164-3.701,9.768-5.938,13.812c-1.205,1.809-2.539,3.529-4.002,5.164c-0.688,0.689-1.119,1.205-1.291,1.549l-2.84-5.035
	c-0.087-0.344-0.216-0.688-0.388-1.031C274.256,210.436,273.136,205.918,271.588,198.773"/>
<path id="path1705" fill="#6F4192" d="M424.414,207.939v22.852h29.435v-22.852H424.414 M409.18,258.031l-2.453-2.453v-8.908
	l13.168-13.297v-25.82l-11.36-9.941v-11.748l3.743-3.613h11.619l2.195,2.193v3.357h3.743v-3.357l2.195-2.193h14.2l2.195,2.193v3.357
	h3.614v-3.357l2.324-2.193h11.619l3.744,3.613v11.748l-11.361,9.941v25.82l13.168,13.297v8.908l-2.452,2.453H409.18
	 M411.246,247.832v5.035h55.771v-5.035H411.246 M423.897,235.051l-8.521,8.262h47.509l-8.521-8.262H423.897 M434.225,187.672v3.355
	l-1.937,1.809h-8.392l-1.937-1.809v-3.613h-7.229l-1.678,1.807v7.229l8.778,7.102h34.599l8.779-7.102v-7.229l-1.679-1.807h-7.229
	v3.613l-1.937,1.809h-8.392l-1.937-1.809v-3.355H434.225"/>
<path id="path1700" fill="#6F4192" d="M607.062,223.045c-6.025,0-10.716-0.258-14.072-0.775c0.603,1.205,0.903,2.238,0.903,3.1
	c0,1.291-0.258,2.365-0.774,3.227c2.496-0.773,7.144-1.162,13.943-1.162c6.799,0,11.446,0.389,13.942,1.162
	c-0.517-0.861-0.774-1.936-0.774-3.227c0-1.033,0.258-2.066,0.774-3.1C616.96,222.787,612.312,223.045,607.062,223.045
	 M607.062,176.311c-1.808,0-3.056,0.818-3.744,2.453c-0.172,0.43-0.259,0.861-0.258,1.291c-0.001,1.893,0.946,3.141,2.84,3.744
	c0.344,0.086,0.731,0.129,1.162,0.129c1.979,0,3.271-0.904,3.873-2.711c0.086-0.346,0.129-0.732,0.129-1.162
	c0-1.721-0.861-2.883-2.582-3.486C607.966,176.396,607.492,176.311,607.062,176.311 M607.062,231.178
	c-3.271,0-7.488,0.301-12.652,0.904c-1.463,0.172-2.323,0.99-2.582,2.453c0,1.033,2.367,1.678,7.101,1.936
	c-0.431-0.086-0.258-0.129,0.517-0.129s3.313,0,7.617,0c10.069,0,15.104-0.602,15.104-1.807c0-1.98-2.496-3.057-7.488-3.229h-3.743
	c-1.119,0-2.066-0.043-2.841-0.129H607.062 M606.932,219.301c9.64,0,15.535-0.904,17.688-2.711c1.463-1.119,2.538-4.088,3.228-8.908
	c-0.431-4.303-3.228-8.434-8.392-12.393c-4.82-3.787-9.037-5.896-12.652-6.326c-3.356,0.43-7.444,2.539-12.265,6.326
	c-5.077,3.959-7.832,8.09-8.262,12.393c0.603,4.477,1.549,7.316,2.84,8.521c0.345,0.344,0.731,0.645,1.162,0.902
	C592.43,218.568,597.982,219.301,606.932,219.301 M604.738,212.975v-5.68h-4.39v-5.035h4.39v-5.551h4.647v5.551h4.39v5.035h-4.39
	v5.68H604.738 M606.803,239.311c-0.774,0-3.055,1.508-6.842,4.52c-2.668,1.807-6.972,2.883-12.91,3.227
	c-4.304,0-7.746,0.215-10.328,0.646c-2.754,0.602-4.131,1.764-4.131,3.486c0.258,1.721,1.162,2.58,2.711,2.58l6.842-1.031
	c4.476,0,9.166-0.604,14.072-1.809c5.594-1.463,9.209-3.787,10.845-6.971c2.323,4.561,8.348,7.316,18.073,8.262
	c0,0,1.119,0.172,3.357,0.518c2.237,0,3.356,0,3.356,0l6.971,1.031c1.55,0,2.453-0.859,2.712-2.58c0-1.723-1.378-2.885-4.132-3.486
	l-13.813-1.033c-4.39-0.344-8.606-2.066-12.651-5.164C609.128,240.043,607.751,239.311,606.803,239.311 M607.062,250.543
	c-3.357,3.357-8.435,5.422-15.234,6.197c-2.754,0.258-7.573,0.859-14.459,1.807c-1.808,0.344-2.84,1.162-3.099,2.453
	c-1.635-0.43-4.045-3.098-7.229-8.004c-0.774-1.205-1.334-2.023-1.678-2.453c2.84-5.422,6.368-8.133,10.586-8.133l7.617,0.387
	c3.528,0,7.659-0.818,12.394-2.453c-6.111-0.773-9.166-2.625-9.166-5.551l2.582-9.812c0-0.086,0-0.172,0-0.258
	c-5.164-5.68-7.746-11.016-7.746-16.008c0-5.68,2.797-10.844,8.391-15.492c4.906-4.131,8.521-6.326,10.845-6.584
	c-1.894-2.324-2.84-4.734-2.84-7.23c0-3.959,1.979-6.455,5.938-7.486c0.946-0.26,1.979-0.389,3.099-0.389
	c4.217,0,6.971,1.594,8.262,4.777l0.646,2.711v0.387c0,2.668-0.903,5.078-2.711,7.23c2.324,0.258,5.981,2.496,10.974,6.713
	c5.508,4.562,8.263,9.684,8.263,15.363c0,4.82-2.582,10.156-7.746,16.008c0,1.205,0.43,2.926,1.291,5.164
	c0.86,2.754,1.291,4.391,1.291,4.906c0,2.926-3.056,4.777-9.166,5.551c4.647,1.635,8.778,2.453,12.394,2.453l7.616-0.387
	c4.218,0,7.746,2.711,10.587,8.133l-4.39,6.713c-1.463,1.895-2.97,3.143-4.519,3.744c-0.345-1.721-2.84-2.797-7.487-3.227
	c0.602,0-0.689-0.131-3.873-0.389C617.734,256.352,610.591,254.072,607.062,250.543"/>
<path id="path1693" fill="#6F4192" d="M744.654,227.562c1.205,0,1.808,0.818,1.808,2.453c0,2.152-1.076,3.229-3.228,3.229
	c-0.86,0-1.291-0.689-1.291-2.066C741.943,228.768,742.846,227.562,744.654,227.562 M753.949,211.812
	c-1.204,0-1.807-0.73-1.807-2.193c0-2.324,1.377-4.219,4.131-5.682c1.205-0.602,2.323-0.902,3.356-0.902
	c1.808,0,2.797,0.602,2.97,1.807c0,1.979-1.55,3.873-4.647,5.68C756.402,211.383,755.068,211.812,753.949,211.812 M754.982,187.543
	c0.345,1.205,0.517,2.021,0.517,2.453c0,0.258-0.129,0.945-0.388,2.064c1.377,0,3.271-0.688,5.681-2.064
	C758.468,188.791,756.531,187.973,754.982,187.543 M739.619,231.953c0.517,2.064,1.894,3.57,4.132,4.518
	c0.86,0.344,1.678,0.518,2.452,0.518h0.259c0.172,0,1.119-0.518,2.84-1.551c0.517-0.344,0.947-0.516,1.291-0.516h0.517
	c0.431,0,0.646,0.258,0.646,0.775l-0.774,2.451c0,0.775,0.603,1.162,1.808,1.162c0.172,0,1.248-1.506,3.228-4.518
	c3.786-5.854,9.166-10.285,16.137-13.297c0.688-4.648,2.41-8.736,5.164-12.266c0.688-0.945,1.377-1.42,2.065-1.42
	c0.775,0,1.162,0.561,1.162,1.678c0,0.26-0.774,2.713-2.323,7.359c-0.603,1.98-0.904,3.443-0.904,4.391
	c0,0.258,0.086,0.816,0.259,1.678c0,6.109-2.582,12.521-7.746,19.236c-3.443,4.646-5.336,8.348-5.681,11.102h42.603
	c0.345-3.959,0.517-6.885,0.517-8.779c0-17.729-5.551-31.887-16.653-42.473c-3.357-3.1-6.068-4.648-8.134-4.648h-7.746
	c-0.688-0.344-1.377-2.064-2.065-5.164c-0.517-2.496-1.162-4.045-1.937-4.646c-1.032,3.098-4.217,5.508-9.554,7.229
	c-2.84,0.861-4.819,1.721-5.938,2.582c-0.946,3.012-3.743,9.123-8.392,18.332C742.287,224.809,739.878,230.23,739.619,231.953
	 M811.915,258.031h-54.093c0.345-5.939,2.582-11.619,6.714-17.041c3.184-4.305,5.077-6.93,5.68-7.875
	c1.205-1.895,1.937-4.176,2.195-6.844c-5.595,2.41-9.941,5.854-13.039,10.328l-1.808,2.971c-1.291,2.064-2.108,3.227-2.453,3.484
	c-0.517,0.432-1.075,0.646-1.678,0.646c-2.669,0-4.476-0.904-5.423-2.711c-0.172-0.26-0.258-0.561-0.258-0.904
	c-0.861,0.43-1.722,0.645-2.582,0.645c-4.131,0-7.402-2.582-9.812-7.744c0.688-3.787,4.303-12.523,10.844-26.209
	c0.688-1.291,1.205-2.322,1.55-3.098c2.582-5.766,3.873-10.113,3.873-13.039c0-0.43-0.259-2.84-0.774-7.23h1.032
	c4.647,0,9.08,1.465,13.298,4.391c2.323-4.045,4.26-6.068,5.81-6.068c2.754,1.463,4.647,3.529,5.68,6.197l1.42,4.26
	c0.861-0.172,1.593-0.258,2.195-0.258c6.885,0,13.685,4.389,20.397,13.168c7.832,10.242,11.748,24.271,11.748,42.086
	C812.431,251.232,812.26,254.846,811.915,258.031"/>
<path id="path1688" fill="#6F4192" d="M966.161,252.867c0-9.037-2.452-15.793-7.358-20.27c-1.635-1.549-3.657-3.012-6.067-4.389
	c-3.356-1.98-5.035-3.787-5.035-5.422c0-0.861,0.86-1.809,2.582-2.84c2.668-1.465,4.261-3.186,4.776-5.164
	c0.173-0.775,0.259-1.723,0.259-2.842c0-3.959-2.022-7.057-6.068-9.295l-2.323-1.678c-0.431-0.43-0.646-0.904-0.646-1.42
	c0-1.463,0.517-2.926,1.549-4.391c0.688-0.945,1.033-2.064,1.033-3.355c0-2.238-1.205-3.873-3.615-4.906
	c-0.774-0.258-1.549-0.387-2.323-0.387c-2.41,0-4.132,1.076-5.164,3.227c-0.345,0.689-0.517,1.377-0.517,2.066
	c0,0.773,0.56,2.238,1.679,4.389c0.688,1.205,0.989,2.324,0.903,3.357c0,1.033-0.99,2.064-2.969,3.098
	c-3.96,2.324-5.939,5.422-5.939,9.295c0,3.357,1.679,6.025,5.035,8.006c1.635,1.117,2.453,2.064,2.453,2.84
	c0,1.635-1.679,3.441-5.035,5.422c-6.196,3.787-10.155,8.391-11.877,13.812c-0.947,3.014-1.42,6.629-1.42,10.846H966.161
	 M915.554,258.031c-0.086-1.033-0.129-3.014-0.129-5.939c0-10.586,3.098-18.504,9.295-23.754c2.065-1.721,4.69-3.4,7.875-5.035
	c-3.271-1.033-5.465-3.529-6.584-7.488c-0.431-1.291-0.646-2.625-0.646-4.002c0-5.766,2.926-9.896,8.778-12.393
	c-1.377-2.496-2.065-4.949-2.065-7.359c0-3.959,1.937-6.885,5.81-8.779c1.636-0.773,3.399-1.162,5.293-1.162
	c4.39,0,7.617,1.68,9.683,5.035c0.946,1.463,1.42,3.1,1.42,4.906c0,2.324-0.774,4.777-2.323,7.359
	c5.938,2.41,8.907,6.541,8.907,12.393c0,4.562-1.678,8.004-5.034,10.328c-0.688,0.518-1.464,0.904-2.324,1.162
	c7.746,3.959,12.781,8.994,15.104,15.105c1.463,3.787,2.195,8.348,2.195,13.684c0,2.84-0.043,4.82-0.13,5.939H915.554"/>
</svg>
